PathFileType	4	(X/Y/Z)	C:/Users/opensim2020/Desktop/walking_exp_matlab/subject02_walking12_straight_01.trc																																																																																																																												
DataRate	CameraRate	NumFrames	NumMarkers	Units	OrigDataRate	OrigDataStartFrame	OrigNumFrames																																																																																																																								
100	100	4	42	mm	100	541	178																																																																																																																								
Frame#	Time	LFHD			RFHD			LBHD			RBHD			C7			T10			CLAV			STRN			RBAK			LSHO			LUPA			LELB			LFRM			LWRA			LWRB			LFIN			RSHO			RUPA			RELB			RFRM			RWRA			RWRB			RFIN			LASI			RASI			LPSI			RPSI			LTHI			LKNE			LTIB			LANK			LHEE			LTOE			RTHI			RKNE			RTIB			RANK			RHEE			RTOE			*39			*40			*41		
		X1	Y1	Z1	X2	Y2	Z2	X3	Y3	Z3	X4	Y4	Z4	X5	Y5	Z5	X6	Y6	Z6	X7	Y7	Z7	X8	Y8	Z8	X9	Y9	Z9	X10	Y10	Z10	X11	Y11	Z11	X12	Y12	Z12	X13	Y13	Z13	X14	Y14	Z14	X15	Y15	Z15	X16	Y16	Z16	X17	Y17	Z17	X18	Y18	Z18	X19	Y19	Z19	X20	Y20	Z20	X21	Y21	Z21	X22	Y22	Z22	X23	Y23	Z23	X24	Y24	Z24	X25	Y25	Z25	X26	Y26	Z26	X27	Y27	Z27	X28	Y28	Z28	X29	Y29	Z29	X30	Y30	Z30	X31	Y31	Z31	X32	Y32	Z32	X33	Y33	Z33	X34	Y34	Z34	X35	Y35	Z35	X36	Y36	Z36	X37	Y37	Z37	X38	Y38	Z38	X39	Y39	Z39	X40	Y40	Z40	X41	Y41	Z41	X42	Y42	Z42
																																																																																																																															
45	0.44	-791.04187	1745.87769	-1017.84558	-794.48743	1721.78955	-872.74133	-902.07819	1648.1593	-1034.58142	-920.47192	1620.41821	-895.2417	-949.74835	1520.76367	-961.48511	-1022.92468	1252.3031	-950.41522	-815.79987	1444.23682	-984.14374	-776.93353	1267.07727	-974.63165	-1011.9436	1356.50513	-888.17578	-896.36444	1489.77661	-1147.09863	-960.5802	1300.68958	-1226.44421	-1001.72192	1166.43469	-1239.14014	-1023.90674	1035.97473	-1257.40393	-991.71796	900.24652	-1239.745	-1041.56885	913.57184	-1263.70642	-1035.60327	847.3479	-1272.01196	-851.57166	1483.9292	-784.87708	-863.33447	1297.9353	-689.547	-834.85529	1152.30225	-668.77911	-785.03802	1041.22864	-658.6153	-720.10498	925.17474	-690.30103	-759.14862	913.28339	-649.14191	-710.1087	859.73792	-654.62848	-810.9386	980.37256	-1091.07971	-816.93158	958.4505	-834.30151	-1019.05145	1033.37732	-1010.21979	-1024.81128	1032.52124	-895.19336	-805.12903	689.52985	-1169.59058	-764.63257	495.47934	-1144.672	-793.11047	303.33359	-1142.1925	-750.48126	81.25268	-1123.7439	-770.61438	50.97874	-1066.40796	-599.20764	61.14343	-1159.74512	-936.40314	655.03156	-793.28235	-975.86877	450.50333	-845.80151	-1049.41199	276.08524	-847.31738	-1100.42676	89.8126	-895.85803	-1141.40381	36.87116	-954.09027	-954.93793	32.21128	-877.53143	-906.83154	1787.04346	-930.68268	2845.86768	1034.30371	-3357.51172	NaN	NaN	NaN
46	0.45	-780.02338	1743.88196	-1019.91156	-783.28632	1720.04553	-874.60303	-891.23914	1646.2605	-1036.94263	-909.27972	1618.53088	-896.80133	-938.29657	1518.8905	-963.00739	-1012.01666	1250.56067	-952.6759	-804.24658	1442.04468	-985.37128	-765.78607	1264.86597	-975.41321	-1001.01013	1354.91321	-889.77649	-884.49683	1487.52417	-1148.58411	-951.03796	1299.35803	-1227.8114	-993.78174	1165.64624	-1239.79443	-1018.26245	1035.67383	-1258.00488	-988.08752	899.28278	-1240.98169	-1037.76721	913.40417	-1264.63562	-1033.17712	847.21112	-1273.00452	-840.27893	1482.11316	-786.38281	-850.00726	1296.41492	-690.37952	-819.97894	1150.93433	-669.62	-767.80023	1040.82361	-660.021	-701.06232	926.21008	-692.80847	-739.65192	913.24036	-651.41998	-689.62848	860.91571	-657.42657	-798.50458	978.42621	-1091.80811	-807.29254	956.94391	-834.29791	-1007.43671	1030.95288	-1012.46136	-1014.7785	1030.02905	-897.9043	-792.98022	687.45471	-1170.32007	-750.26404	493.74524	-1145.75488	-768.97357	300.15042	-1144.89758	-715.30878	80.30852	-1128.51807	-734.28223	49.26553	-1071.40503	-562.53113	65.50389	-1162.98499	-930.86859	654.16681	-794.07971	-971.95392	449.88379	-846.60272	-1047.51917	276.52612	-847.98065	-1100.12085	90.47417	-896.37518	-1141.26233	37.95047	-954.45203	-954.92914	32.19987	-877.29773	-895.71564	1784.95105	-932.70044	2845.74902	1034.34937	-3357.23315	NaN	NaN	NaN
47	0.46	-768.64661	1741.58643	-1021.69183	-771.87708	1718.00952	-876.14807	-879.85181	1643.82068	-1038.37024	-897.60577	1616.36279	-898.31409	-926.73358	1516.80823	-964.71429	-1001.00391	1248.67346	-954.96387	-792.61804	1439.71008	-986.73785	-754.59448	1262.48999	-976.1369	-990.21295	1353.3092	-891.7041	-872.46283	1485.12964	-1150.08936	-941.2254	1298.00073	-1229.38184	-985.73401	1164.66931	-1240.79333	-1012.21918	1035.14258	-1258.80505	-984.0788	898.229	-1242.18567	-1033.71643	913.36981	-1265.47449	-1030.36169	846.99475	-1274.0376	-829.02051	1480.15784	-787.93579	-836.8111	1294.49243	-691.72784	-804.89264	1149.52136	-670.59283	-751.42865	1039.74731	-661.99646	-682.25171	926.90869	-695.24414	-720.29633	913.19275	-653.71045	-668.94037	861.91669	-660.10565	-785.78088	976.28497	-1092.38135	-797.44415	955.35309	-834.27936	-995.74927	1028.4292	-1014.69885	-1004.67535	1027.44324	-900.67725	-781.0957	684.95929	-1171.23157	-736.01483	491.66373	-1146.96094	-745.13409	297.40405	-1147.73792	-681.23822	80.08814	-1132.99487	-699.59454	48.40445	-1076.26514	-527.04779	71.45254	-1165.56384	-924.99048	653.14221	-794.89587	-967.46875	449.02148	-847.64856	-1045.25464	276.69913	-849.11621	-1099.57617	91.11559	-897.10114	-1140.23682	38.03869	-955.49768	-954.96472	32.14596	-877.27814	-884.35962	1782.74194	-934.40643	2845.23926	1034.1908	-3360.17529	NaN	NaN	NaN
48	0.47	-757.49768	1739.2168	-1023.62787	-760.27747	1715.68909	-878.4397	-868.45129	1641.30847	-1040.13037	-886.22363	1614.09131	-899.92175	-914.99902	1514.46533	-966.65375	-989.74542	1246.52661	-957.48206	-780.95856	1437.22192	-988.04218	-743.18652	1260.04529	-976.98706	-979.53705	1351.03625	-893.69666	-860.26605	1482.57104	-1151.72888	-931.15808	1295.95544	-1229.9386	-977.36572	1163.5697	-1241.90039	-1005.73297	1034.40479	-1259.95911	-979.61932	897.10602	-1243.48828	-1029.13916	913.01093	-1266.40942	-1027.0061	846.61536	-1275.02502	-818.01569	1478.16479	-789.57483	-824.30353	1292.68848	-693.15558	-789.76752	1147.71667	-671.6474	-734.31024	1039.17261	-663.52966	-663.8833	927.83301	-697.94788	-701.14343	913.04602	-656.06683	-648.81207	862.92004	-662.90234	-772.87451	974.10419	-1092.89783	-787.55139	953.60449	-834.32581	-983.90527	1025.79309	-1016.92731	-993.98267	1024.57507	-903.65247	-769.26215	682.13641	-1172.63306	-721.60962	489.41013	-1148.23547	-721.85785	295.20764	-1150.63098	-648.3916	80.63394	-1137.33887	-665.48059	47.27644	-1081.20703	-493.23712	78.11362	-1167.30212	-919.39185	652.19177	-795.73175	-963.32367	448.37421	-848.5412	-1043.11975	277.02188	-850.12195	-1099.19006	91.83292	-897.84711	-1140.11865	39.24131	-956.2431	-954.95563	32.06335	-877.14447	-872.97144	1780.44678	-936.46777	2845.86475	1034.28223	-3357.38379	NaN	NaN	NaN
